<svg width="1600" height="1100" viewBox="0 0 1600 1100" fill="none" xmlns="http://www.w3.org/2000/svg">
  <rect width="1600" height="1100" fill="#F5F2EA"/>
  <g transform="translate(214 168)">
    <rect x="120" y="70" width="980" height="650" rx="26" fill="#12110F"/>
    <rect x="0" y="0" width="980" height="650" rx="26" fill="#FFFDF8" stroke="#D8D0C2" stroke-width="2"/>
    <path d="M0 96H980" stroke="#D8D0C2" stroke-width="2"/>
    <circle cx="58" cy="48" r="13" fill="#E9C0B4"/>
    <circle cx="98" cy="48" r="13" fill="#E8D9A8"/>
    <circle cx="138" cy="48" r="13" fill="#BDD0C0"/>
    <rect x="60" y="158" width="386" height="54" rx="10" fill="#151411"/>
    <rect x="60" y="248" width="650" height="16" rx="8" fill="#D9D2C5"/>
    <rect x="60" y="286" width="570" height="16" rx="8" fill="#E7E1D7"/>
    <rect x="60" y="324" width="440" height="16" rx="8" fill="#E7E1D7"/>
    <rect x="60" y="430" width="248" height="118" rx="14" fill="#F7E2D8"/>
    <rect x="332" y="430" width="248" height="118" rx="14" fill="#E3EEE7"/>
    <rect x="604" y="430" width="248" height="118" rx="14" fill="#E1EEF6"/>
  </g>
  <g transform="translate(942 366)">
    <rect width="390" height="508" rx="20" fill="#FFFDF8" stroke="#D8D0C2" stroke-width="2"/>
    <rect x="34" y="42" width="156" height="22" rx="11" fill="#151411"/>
    <rect x="34" y="100" width="310" height="190" rx="16" fill="#F3EFE6"/>
    <path d="M70 244C120 170 165 224 200 176C240 122 291 170 318 132" stroke="#151411" stroke-width="4" stroke-linecap="round"/>
    <rect x="34" y="334" width="280" height="14" rx="7" fill="#D9D2C5"/>
    <rect x="34" y="372" width="222" height="14" rx="7" fill="#E7E1D7"/>
    <rect x="34" y="410" width="300" height="14" rx="7" fill="#E7E1D7"/>
  </g>
  <g font-family="Arial, Helvetica, sans-serif">
    <text x="280" y="835" fill="#151411" font-size="116" font-weight="700" letter-spacing="-5">Split text</text>
    <text x="286" y="888" fill="#6B655C" font-size="24" letter-spacing="4">MASKED COMPONENT SEQUENCES</text>
  </g>
</svg>
