<svg width="1600" height="1100" viewBox="0 0 1600 1100" fill="none" xmlns="http://www.w3.org/2000/svg">
  <rect width="1600" height="1100" fill="#F7F4ED"/>
  <rect x="88" y="80" width="1424" height="940" rx="26" fill="#FFFDF8" stroke="#D8D0C2" stroke-width="2"/>
  <path d="M88 228H1512" stroke="#D8D0C2" stroke-width="2"/>
  <path d="M250 80V1020" stroke="#E7E0D5" stroke-width="2"/>
  <path d="M1350 80V1020" stroke="#E7E0D5" stroke-width="2"/>
  <g opacity=".92" font-family="Arial, Helvetica, sans-serif" fill="#151411">
    <text x="320" y="358" font-size="162" font-weight="700" letter-spacing="-7">LENIS</text>
    <text x="330" y="540" font-size="156" font-weight="700" letter-spacing="-6">GSAP</text>
    <text x="326" y="710" font-size="112" font-weight="700" letter-spacing="-4">SCROLLTRIGGER</text>
  </g>
  <g stroke="#151411" stroke-width="2.5" opacity=".82">
    <path d="M318 800C500 710 606 930 777 820C902 739 1000 786 1092 850C1187 916 1272 897 1314 858"/>
    <path d="M318 874C460 806 594 858 700 912C865 996 977 746 1118 790C1216 820 1270 880 1314 930"/>
  </g>
  <g opacity=".14" fill="#151411">
    <rect x="122" y="126" width="88" height="38" rx="19"/>
    <rect x="122" y="280" width="88" height="38" rx="19"/>
    <rect x="122" y="434" width="88" height="38" rx="19"/>
    <rect x="122" y="588" width="88" height="38" rx="19"/>
    <rect x="122" y="742" width="88" height="38" rx="19"/>
    <rect x="122" y="896" width="88" height="38" rx="19"/>
    <rect x="1390" y="126" width="88" height="38" rx="19"/>
    <rect x="1390" y="280" width="88" height="38" rx="19"/>
    <rect x="1390" y="434" width="88" height="38" rx="19"/>
    <rect x="1390" y="588" width="88" height="38" rx="19"/>
    <rect x="1390" y="742" width="88" height="38" rx="19"/>
    <rect x="1390" y="896" width="88" height="38" rx="19"/>
  </g>
  <g transform="translate(1080 262)">
    <rect width="230" height="310" rx="18" fill="#12110F"/>
    <rect x="22" y="28" width="186" height="118" rx="12" fill="#F7F4ED"/>
    <rect x="22" y="170" width="148" height="12" rx="6" fill="#F4B6A2"/>
    <rect x="22" y="200" width="110" height="12" rx="6" fill="#DCE8DF"/>
    <rect x="22" y="230" width="168" height="12" rx="6" fill="#D9E8F2"/>
    <circle cx="174" cy="256" r="24" fill="#F8E4A6"/>
  </g>
  <g font-family="Arial, Helvetica, sans-serif" fill="#6B655C" font-size="26" letter-spacing="4">
    <text x="320" y="170">PINNED SCROLL / MASK REVEAL / SCALE CUTS</text>
    <text x="320" y="948">A QUIET MOTION ENGINE FOR EDITORIAL WEB PAGES</text>
  </g>
</svg>
