<svg width="1600" height="1100" viewBox="0 0 1600 1100" fill="none" xmlns="http://www.w3.org/2000/svg">
  <rect width="1600" height="1100" fill="#F8F7F2"/>
  <rect x="130" y="98" width="1340" height="904" rx="28" fill="#FFFDF9" stroke="#D9D2C5" stroke-width="2"/>
  <g stroke="#CFC7B9" stroke-width="2">
    <path d="M362 365L646 234L928 362L1222 260"/>
    <path d="M362 365L622 545L930 360L1222 590"/>
    <path d="M622 545L405 810L928 820L1222 590"/>
    <path d="M646 234L622 545L928 820"/>
    <path d="M928 362L928 820"/>
  </g>
  <g font-family="Arial, Helvetica, sans-serif">
    <g transform="translate(260 286)">
      <circle cx="102" cy="79" r="78" fill="#12110F"/>
      <text x="102" y="72" text-anchor="middle" fill="#FFFDF9" font-size="24" font-weight="700">MOTION</text>
      <text x="102" y="104" text-anchor="middle" fill="#D7D0C4" font-size="18">8 refs</text>
    </g>
    <g transform="translate(540 155)">
      <circle cx="106" cy="79" r="72" fill="#F6E1D7" stroke="#D6B6A7" stroke-width="2"/>
      <text x="106" y="77" text-anchor="middle" fill="#151411" font-size="22" font-weight="700">REACT</text>
      <text x="106" y="106" text-anchor="middle" fill="#6E625C" font-size="17">VUE BITS</text>
    </g>
    <g transform="translate(820 284)">
      <circle cx="108" cy="78" r="82" fill="#E5F0E7" stroke="#B8CABD" stroke-width="2"/>
      <text x="108" y="76" text-anchor="middle" fill="#151411" font-size="24" font-weight="700">ASSETS</text>
      <text x="108" y="108" text-anchor="middle" fill="#52665A" font-size="17">photo / video</text>
    </g>
    <g transform="translate(1128 176)">
      <circle cx="94" cy="84" r="74" fill="#E2EEF5" stroke="#BCD0DB" stroke-width="2"/>
      <text x="94" y="82" text-anchor="middle" fill="#151411" font-size="23" font-weight="700">ICONS</text>
      <text x="94" y="112" text-anchor="middle" fill="#526673" font-size="17">6 sets</text>
    </g>
    <g transform="translate(510 466)">
      <circle cx="112" cy="79" r="76" fill="#FBF0D3" stroke="#DFCEA0" stroke-width="2"/>
      <text x="112" y="76" text-anchor="middle" fill="#151411" font-size="23" font-weight="700">STYLE</text>
      <text x="112" y="106" text-anchor="middle" fill="#76643A" font-size="17">prompts</text>
    </g>
    <g transform="translate(1115 506)">
      <circle cx="107" cy="84" r="84" fill="#12110F"/>
      <text x="107" y="82" text-anchor="middle" fill="#FFFDF9" font-size="24" font-weight="700">3D</text>
      <text x="107" y="114" text-anchor="middle" fill="#D7D0C4" font-size="18">objects</text>
    </g>
    <g transform="translate(300 732)">
      <circle cx="105" cy="78" r="70" fill="#ECE9E2" stroke="#D7D0C4" stroke-width="2"/>
      <text x="105" y="76" text-anchor="middle" fill="#151411" font-size="21" font-weight="700">TEXTURE</text>
      <text x="105" y="104" text-anchor="middle" fill="#6B655C" font-size="16">fonts</text>
    </g>
    <g transform="translate(820 742)">
      <circle cx="108" cy="78" r="78" fill="#F6E1D7" stroke="#D6B6A7" stroke-width="2"/>
      <text x="108" y="76" text-anchor="middle" fill="#151411" font-size="23" font-weight="700">BUILD</text>
      <text x="108" y="106" text-anchor="middle" fill="#6E625C" font-size="17">stack</text>
    </g>
  </g>
  <g font-family="Arial, Helvetica, sans-serif" fill="#151411">
    <text x="175" y="190" font-size="76" font-weight="700" letter-spacing="-3">Resource atlas</text>
    <text x="177" y="236" font-size="22" fill="#6B655C" letter-spacing="3">CURATED WEB MOTION LIBRARY</text>
  </g>
</svg>
