<svg width="310" height="290" viewBox="0 0 310 290" fill="none" xmlns="http://www.w3.org/2000/svg">
  <defs>
    <linearGradient id="front" x1="72" y1="94" x2="236" y2="262" gradientUnits="userSpaceOnUse">
      <stop stop-color="#FCF8F1"/>
      <stop offset=".52" stop-color="#E7DCCA"/>
      <stop offset="1" stop-color="#C8B095"/>
    </linearGradient>
    <linearGradient id="top" x1="82" y1="38" x2="270" y2="134" gradientUnits="userSpaceOnUse">
      <stop stop-color="#FFFDF7"/>
      <stop offset=".52" stop-color="#EDE3D4"/>
      <stop offset="1" stop-color="#BCA487"/>
    </linearGradient>
    <linearGradient id="side" x1="43" y1="102" x2="134" y2="270" gradientUnits="userSpaceOnUse">
      <stop stop-color="#EDE1D1"/>
      <stop offset="1" stop-color="#BFA78B"/>
    </linearGradient>
    <filter id="boxShadow" x="34" y="26" width="254" height="260" filterUnits="userSpaceOnUse" color-interpolation-filters="sRGB">
      <feDropShadow dx="0" dy="26" stdDeviation="20" flood-color="#332416" flood-opacity=".16"/>
    </filter>
  </defs>

  <g filter="url(#boxShadow)">
    <path d="M52 99L206 58L275 118L119 160L52 99Z" fill="url(#top)" stroke="#17130F" stroke-opacity=".15"/>
    <path d="M52 99V205L119 264V160L52 99Z" fill="url(#side)" stroke="#17130F" stroke-opacity=".14"/>
    <path d="M119 160L275 118V224L119 264V160Z" fill="url(#front)" stroke="#17130F" stroke-opacity=".14"/>
    <path d="M82 90L150 147" stroke="#17130F" stroke-opacity=".1" stroke-width="1.4"/>
    <path d="M206 58L206 104" stroke="#17130F" stroke-opacity=".12" stroke-width="1.5"/>
    <path d="M145 178L239 154" stroke="#17130F" stroke-opacity=".14" stroke-width="1.4"/>
    <path d="M145 199L220 180" stroke="#17130F" stroke-opacity=".1" stroke-width="1.4"/>
    <path d="M145 220L246 194" stroke="#17130F" stroke-opacity=".08" stroke-width="1.4"/>
    <rect x="170" y="121" width="36" height="72" rx="18" transform="rotate(75 170 121)" fill="#1B1712" fill-opacity=".08"/>
    <path d="M88 128L88 210" stroke="#FFFFFF" stroke-opacity=".3" stroke-width="1.3"/>
    <text x="143" y="153" fill="#11100E" fill-opacity=".86" font-family="Georgia, 'Times New Roman', serif" font-size="19" letter-spacing="4">NOVA</text>
    <text x="146" y="244" fill="#11100E" fill-opacity=".42" font-family="Arial, sans-serif" font-size="8" letter-spacing="2.8">DISCOVERY SET</text>
  </g>
</svg>
