<svg width="360" height="420" viewBox="0 0 360 420" fill="none" xmlns="http://www.w3.org/2000/svg">
  <defs>
    <linearGradient id="glass" x1="92" y1="58" x2="266" y2="382" gradientUnits="userSpaceOnUse">
      <stop stop-color="#FFFDFC"/>
      <stop offset="0.34" stop-color="#F6EFE7"/>
      <stop offset="0.72" stop-color="#DCCAB8"/>
      <stop offset="1" stop-color="#B79D86"/>
    </linearGradient>
    <linearGradient id="edge" x1="238" y1="122" x2="296" y2="326" gradientUnits="userSpaceOnUse">
      <stop stop-color="#FFFFFF" stop-opacity=".82"/>
      <stop offset=".45" stop-color="#EADCCD" stop-opacity=".28"/>
      <stop offset="1" stop-color="#80674F" stop-opacity=".38"/>
    </linearGradient>
    <linearGradient id="cap" x1="132" y1="28" x2="226" y2="108" gradientUnits="userSpaceOnUse">
      <stop stop-color="#EEE7DD"/>
      <stop offset=".5" stop-color="#B7AA99"/>
      <stop offset="1" stop-color="#6B6258"/>
    </linearGradient>
    <radialGradient id="shine" cx="0" cy="0" r="1" gradientUnits="userSpaceOnUse" gradientTransform="translate(132 142) rotate(48) scale(154 82)">
      <stop stop-color="#FFFFFF" stop-opacity=".86"/>
      <stop offset=".55" stop-color="#FFFFFF" stop-opacity=".16"/>
      <stop offset="1" stop-color="#FFFFFF" stop-opacity="0"/>
    </radialGradient>
    <filter id="softShadow" x="24" y="20" width="312" height="380" filterUnits="userSpaceOnUse" color-interpolation-filters="sRGB">
      <feDropShadow dx="0" dy="28" stdDeviation="24" flood-color="#3B2A1D" flood-opacity=".18"/>
    </filter>
  </defs>

  <g filter="url(#softShadow)">
    <path d="M136 54C136 41.85 145.85 32 158 32H202C214.15 32 224 41.85 224 54V92H136V54Z" fill="url(#cap)" stroke="#17130F" stroke-opacity=".18"/>
    <rect x="124" y="78" width="112" height="38" rx="12" fill="#211D19" fill-opacity=".82"/>
    <path d="M96 142C99.62 115.36 122.34 96 149.23 96H211.12C237.7 96 260.25 114.94 264.22 141.22L292 325C297.21 359.48 270.52 390.5 235.65 390.5H123.83C88.74 390.5 61.98 359.09 67.56 324.45L96 142Z" fill="url(#glass)" stroke="#15110D" stroke-opacity=".16"/>
    <path d="M241 113C253.27 122.22 261.27 136.16 263.66 152.06L289.2 322.36C293.96 354.06 269.43 382.5 237.37 382.5H218.5C248.6 360.6 260.5 316.5 254.5 273L234.5 128C233.34 119.58 237.02 113.68 241 113Z" fill="url(#edge)"/>
    <path d="M104 153C107.76 126.89 129.98 107.5 156.36 107.5H201.5" stroke="#FFFFFF" stroke-opacity=".56" stroke-width="1.5"/>
    <path d="M105 307C120.6 332.42 149.3 347.65 181 346.5C214.13 345.3 240.75 327.27 254 299" stroke="#2A2119" stroke-opacity=".09" stroke-width="1.5"/>
    <path d="M108 174H252" stroke="#1A1714" stroke-opacity=".14" stroke-width="1.5"/>
    <path d="M116 262H245" stroke="#1A1714" stroke-opacity=".11" stroke-width="1.5"/>
    <ellipse cx="180" cy="216" rx="62" ry="70" fill="#FFF8EF" fill-opacity=".38" stroke="#1A1714" stroke-opacity=".11"/>
    <path d="M143 218C156.96 198.7 185.89 189.52 215 201" stroke="#1A1714" stroke-opacity=".18" stroke-width="1.4"/>
    <text x="127" y="187" fill="#11100E" fill-opacity=".85" font-family="Georgia, 'Times New Roman', serif" font-size="23" letter-spacing="5">AURELIA</text>
    <text x="141" y="245" fill="#11100E" fill-opacity=".52" font-family="Arial, sans-serif" font-size="10" letter-spacing="3.6">EAU DE PARFUM</text>
    <text x="155" y="283" fill="#11100E" fill-opacity=".42" font-family="Arial, sans-serif" font-size="8" letter-spacing="2.8">NOVA ATELIER</text>
    <path d="M101 143C116 126 136 119 164 119" stroke="url(#shine)" stroke-width="28" stroke-linecap="round"/>
  </g>
</svg>
