<svg width="220" height="430" viewBox="0 0 220 430" fill="none" xmlns="http://www.w3.org/2000/svg">
  <defs>
    <linearGradient id="bottle" x1="60" y1="44" x2="166" y2="402" gradientUnits="userSpaceOnUse">
      <stop stop-color="#FFFEFB"/>
      <stop offset=".42" stop-color="#EEE9DF"/>
      <stop offset=".75" stop-color="#CBBBA8"/>
      <stop offset="1" stop-color="#A38D78"/>
    </linearGradient>
    <linearGradient id="pump" x1="54" y1="10" x2="172" y2="82" gradientUnits="userSpaceOnUse">
      <stop stop-color="#F8F3EA"/>
      <stop offset=".45" stop-color="#C7B7A5"/>
      <stop offset="1" stop-color="#5D554E"/>
    </linearGradient>
    <linearGradient id="amber" x1="80" y1="118" x2="138" y2="350" gradientUnits="userSpaceOnUse">
      <stop stop-color="#D9A45D" stop-opacity=".2"/>
      <stop offset=".56" stop-color="#A86C3D" stop-opacity=".18"/>
      <stop offset="1" stop-color="#5F3926" stop-opacity=".22"/>
    </linearGradient>
    <filter id="serumShadow" x="28" y="4" width="170" height="408" filterUnits="userSpaceOnUse" color-interpolation-filters="sRGB">
      <feDropShadow dx="0" dy="28" stdDeviation="20" flood-color="#31251B" flood-opacity=".18"/>
    </filter>
  </defs>

  <g filter="url(#serumShadow)">
    <path d="M93 18H154C164.49 18 173 26.51 173 37V45H113C101.95 45 93 36.05 93 25V18Z" fill="url(#pump)" stroke="#17130F" stroke-opacity=".17"/>
    <rect x="89" y="42" width="55" height="48" rx="13" fill="#17130F" fill-opacity=".82"/>
    <rect x="76" y="78" width="82" height="48" rx="18" fill="#ECE2D4" stroke="#17130F" stroke-opacity=".14"/>
    <path d="M57 149C57 128.01 74.01 111 95 111H130C150.99 111 168 128.01 168 149V344C168 368.3 148.3 388 124 388H101C76.7 388 57 368.3 57 344V149Z" fill="url(#bottle)" stroke="#15110D" stroke-opacity=".15"/>
    <path d="M78 133C83.95 125.52 93.13 121 103 121H126" stroke="#FFFFFF" stroke-opacity=".54" stroke-width="1.4"/>
    <path d="M139 119C153.78 124.11 164 137.93 164 153.84V337.12C164 361.78 145.24 381.58 121.5 383.5C141.9 364.1 149.5 333.8 149.5 303.5V150C149.5 134 144.5 123.5 139 119Z" fill="#4E3B2B" fill-opacity=".08"/>
    <rect x="77" y="174" width="71" height="132" rx="8" fill="#FFF8EE" fill-opacity=".36" stroke="#17130F" stroke-opacity=".1"/>
    <path d="M91 215H134" stroke="#17130F" stroke-opacity=".16" stroke-width="1.3"/>
    <path d="M91 235H124" stroke="#17130F" stroke-opacity=".1" stroke-width="1.3"/>
    <path d="M91 255H131" stroke="#17130F" stroke-opacity=".1" stroke-width="1.3"/>
    <path d="M75 311C89 323 137 323 151 309" stroke="#17130F" stroke-opacity=".1" stroke-width="1.4"/>
    <path d="M95 143C108 139 121 139 134 143" stroke="#17130F" stroke-opacity=".14" stroke-width="1.4"/>
    <path d="M60 262C75 244 114 234 156 242" stroke="url(#amber)" stroke-width="52" stroke-linecap="round"/>
    <text x="85" y="198" fill="#11100E" fill-opacity=".84" font-family="Georgia, 'Times New Roman', serif" font-size="19" letter-spacing="3.8">SERUM</text>
    <text x="88" y="286" fill="#11100E" fill-opacity=".46" font-family="Arial, sans-serif" font-size="8" letter-spacing="2.4">LUMEN COMPLEX</text>
  </g>
</svg>
